<svg width="24" height="24" viewBox="0 0 24 24" fill="none" xmlns="http://www.w3.org/2000/svg">
<path d="M12 2C16.97 2 21 6.03 21 11C21 15.97 16.97 20 12 20H4C2.9 20 2 19.1 2 18V11C2 6.03 6.03 2 12 2ZM12 4C7.13 4 4 7.13 4 11V18H12C15.87 18 19 14.87 19 11C19 7.13 15.87 4 12 4ZM16 10C16.55 10 17 10.45 17 11C17 11.55 16.55 12 16 12C15.45 12 15 11.55 15 11C15 10.45 15.45 10 16 10ZM12 8C12.55 8 13 8.45 13 9C13 9.55 12.55 10 12 10C11.45 10 11 9.55 11 9C11 8.45 11.45 8 12 8ZM8 10C8.55 10 9 10.45 9 11C9 11.55 8.55 12 8 12C7.45 12 7 11.55 7 11C7 10.45 7.45 10 8 10Z" fill="currentColor"/>
</svg>
