<svg width="24" height="24" viewBox="0 0 24 24" fill="none" xmlns="http://www.w3.org/2000/svg">
<path d="M19.14 12.94C19.73 12.94 20.2 12.47 20.2 11.88C20.2 11.29 19.73 10.82 19.14 10.82C18.55 10.82 18.08 11.29 18.08 11.88C18.08 12.47 18.55 12.94 19.14 12.94ZM19.14 19.5C19.73 19.5 20.2 19.03 20.2 18.44C20.2 17.85 19.73 17.38 19.14 17.38C18.55 17.38 18.08 17.85 18.08 18.44C18.08 19.03 18.55 19.5 19.14 19.5ZM19.14 6.38C19.73 6.38 20.2 5.91 20.2 5.32C20.2 4.73 19.73 4.26 19.14 4.26C18.55 4.26 18.08 4.73 18.08 5.32C18.08 5.91 18.55 6.38 19.14 6.38ZM15.92 8.99H6.74C6.15 8.99 5.68 8.52 5.68 7.93S6.15 6.87 6.74 6.87H15.92C16.51 6.87 16.98 7.34 16.98 7.93S16.51 8.99 15.92 8.99ZM15.92 15.55H6.74C6.15 15.55 5.68 15.08 5.68 14.49S6.15 13.43 6.74 13.43H15.92C16.51 13.43 16.98 13.9 16.98 14.49S16.51 15.55 15.92 15.55ZM6.74 17.11H15.92C16.51 17.11 16.98 17.58 16.98 18.17C16.98 18.76 16.51 19.23 15.92 19.23H6.74C6.15 19.23 5.68 18.76 5.68 18.17C5.68 17.58 6.15 17.11 6.74 17.11Z" fill="currentColor"/>
</svg>
