<svg width="64" height="64" viewBox="0 0 64 64" fill="none" xmlns="http://www.w3.org/2000/svg">
<rect width="64" height="64" rx="16" fill="#4CAF50"/>
<path d="M32 12C38.6274 12 44 17.3726 44 24V28H46C47.1046 28 48 28.8954 48 30V50C48 51.1046 47.1046 52 46 52H18C16.8954 52 16 51.1046 16 50V30C16 28.8954 16.8954 28 18 28H20V24C20 17.3726 25.3726 12 32 12ZM46 30H18V50H46V30ZM32 36C33.1046 36 34 36.8954 34 38C34 39.1046 33.1046 40 32 40C30.8954 40 30 39.1046 30 38C30 36.8954 30.8954 36 32 36ZM32 14C26.4771 14 22 18.4771 22 24V28H42V24C42 18.4771 37.5228 14 32 14Z" fill="white"/>
</svg>
