<svg width="48" height="48" viewBox="0 0 48 48" fill="none" xmlns="http://www.w3.org/2000/svg">
<circle cx="24" cy="24" r="24" fill="#64B5F6"/>
<rect x="12" y="16" width="24" height="20" rx="4" fill="white"/>
<rect x="14" y="18" width="20" height="16" rx="2" fill="#64B5F6"/>
<path d="M18 22C18 21 19 20 20 20H28C29 20 30 21 30 22V24H18V22Z" fill="white"/>
<circle cx="21" cy="27" r="1.5" fill="white"/>
<circle cx="24" cy="29" r="1.5" fill="white"/>
<circle cx="27" cy="27" r="1.5" fill="white"/>
<rect x="20" y="12" width="8" height="4" rx="2" fill="white"/>
<path d="M22 14H26V16H22V14Z" fill="#64B5F6"/>
<path d="M16 32L20 28L24 32L28 28L32 32V34H16V32Z" fill="white" opacity="0.6"/>
</svg>
