<svg width="48" height="48" viewBox="0 0 48 48" fill="none" xmlns="http://www.w3.org/2000/svg">
<circle cx="24" cy="24" r="24" fill="#A5D6A7"/>
<rect x="14" y="18" width="12" height="16" rx="2" fill="white"/>
<rect x="16" y="20" width="8" height="12" rx="1" fill="#A5D6A7"/>
<circle cx="20" cy="24" r="2" fill="white"/>
<rect x="26" y="16" width="8" height="20" rx="2" fill="white"/>
<rect x="28" y="18" width="4" height="16" rx="1" fill="#A5D6A7"/>
<circle cx="30" cy="26" r="1.5" fill="white"/>
<path d="M18 14C18 13 19 12 20 12C21 12 22 13 22 14V16H18V14Z" fill="white"/>
<path d="M28 14C28 13 29 12 30 12C31 12 32 13 32 14V16H28V14Z" fill="white"/>
</svg>
