<svg width="48" height="48" viewBox="0 0 48 48" fill="none" xmlns="http://www.w3.org/2000/svg">
<circle cx="24" cy="24" r="24" fill="#81C784"/>
<path d="M24 12C26 10 28 10 30 12C32 14 32 16 30 18L24 24L18 18C16 16 16 14 18 12C20 10 22 10 24 12Z" fill="white"/>
<circle cx="20" cy="32" r="4" fill="white"/>
<circle cx="28" cy="32" r="4" fill="white"/>
<path d="M16 36C16 34 18 32 20 32C22 32 24 34 24 36H16Z" fill="white"/>
<path d="M24 36C24 34 26 32 28 32C30 32 32 34 32 36H24Z" fill="white"/>
</svg>
